<?xml version="1.0" encoding="utf-8"?>
<!-- Generator: Adobe Illustrator 16.2.1, SVG Export Plug-In . SVG Version: 6.00 Build 0)  -->
<!DOCTYPE svg PUBLIC "-//W3C//DTD SVG 1.1//EN" "http://www.w3.org/Graphics/SVG/1.1/DTD/svg11.dtd">
<svg version="1.1" xmlns="http://www.w3.org/2000/svg" xmlns:xlink="http://www.w3.org/1999/xlink" x="0px" y="0px" width="141px"
	 height="60px" viewBox="0 0 141 60" enable-background="new 0 0 141 60" xml:space="preserve">
<g id="Layer_2">
</g>
<g id="Layer_1">
	<g>
		<path fill-rule="evenodd" clip-rule="evenodd" fill="#FFFFFF" d="M83.76,22.381c-1.958,0-3.496,0.42-5.035,1.259
			c0-4.475,0-8.529,0.14-9.928l-9.369,1.678v0.839l0.979,0.14c1.259,0.279,1.679,0.978,1.958,2.657c0.28,3.355,0.14,21.254,0,24.191
			c2.517,0.561,5.174,0.98,7.831,0.98c7.412,0,11.886-4.615,11.886-11.886C92.15,26.577,88.515,22.381,83.76,22.381L83.76,22.381z
			 M80.544,42.658c-0.561,0-1.259,0-1.679-0.139c-0.14-1.958-0.279-10.208-0.14-17.479c0.839-0.28,1.398-0.42,2.098-0.42
			c3.076,0,4.754,3.635,4.754,8.11C85.578,38.324,83.48,42.658,80.544,42.658L80.544,42.658z"/>
		<path fill-rule="evenodd" clip-rule="evenodd" fill="#FFFFFF" d="M34.258,14.272H9.647v1.258l1.398,0.14
			c1.818,0.279,2.517,1.398,2.796,4.056c0.42,5.033,0.28,14.124,0,18.458c-0.279,2.657-0.978,3.916-2.796,4.055l-1.398,0.28v1.119
			h15.801v-1.119l-1.678-0.28c-1.818-0.139-2.518-1.398-2.796-4.055c-0.141-1.819-0.28-4.755-0.28-8.39l3.356,0.14
			c2.098,0,3.076,1.678,3.496,4.055h1.258v-9.927h-1.258c-0.42,2.377-1.398,4.054-3.496,4.054l-3.356,0.139
			c0-4.753,0.14-9.228,0.28-11.885h4.893c3.777,0,5.734,2.376,7.132,6.572l1.398-0.419L34.258,14.272L34.258,14.272z"/>
		<path fill-rule="evenodd" clip-rule="evenodd" fill="#FFFFFF" d="M42.229,22.103c6.992,0,10.488,4.754,10.488,11.046
			c0,6.014-3.916,11.048-10.908,11.048c-6.992,0-10.487-4.755-10.487-11.048C31.322,27.137,35.237,22.103,42.229,22.103
			L42.229,22.103z M41.809,23.501c-3.076,0-3.915,4.194-3.915,9.647c0,5.313,1.398,9.649,4.196,9.649
			c3.215,0,4.055-4.196,4.055-9.649C46.145,27.835,44.746,23.501,41.809,23.501L41.809,23.501z"/>
		<path fill-rule="evenodd" clip-rule="evenodd" fill="#FFFFFF" d="M93.969,33.289c0-5.733,3.635-11.187,10.767-11.187
			c5.873,0,8.67,4.335,8.67,10.068H100.4c-0.139,5.173,2.378,8.95,7.413,8.95c2.237,0,3.355-0.561,4.754-1.538l0.559,0.698
			c-1.399,1.958-4.475,3.917-8.39,3.917C98.442,44.197,93.969,39.723,93.969,33.289L93.969,33.289z M100.4,30.634l6.573-0.141
			c0-2.797-0.42-6.991-2.797-6.991C101.799,23.501,100.54,27.416,100.4,30.634L100.4,30.634z"/>
		<path fill-rule="evenodd" clip-rule="evenodd" fill="#FFFFFF" d="M130.045,23.223c-1.678-0.701-3.915-1.12-6.432-1.12
			c-5.174,0-8.39,3.075-8.39,6.712c0,3.636,2.376,5.173,5.734,6.293c3.495,1.257,4.474,2.236,4.474,3.914
			c0,1.679-1.258,3.217-3.496,3.217c-2.657,0-4.615-1.538-6.153-5.733l-0.979,0.28l0.139,6.153c1.678,0.699,4.754,1.259,7.413,1.259
			c5.453,0,8.949-2.798,8.949-7.132c0-2.937-1.539-4.614-5.174-6.014c-3.916-1.538-5.314-2.515-5.314-4.334
			c0-1.818,1.259-3.077,2.937-3.077c2.518,0,4.196,1.538,5.454,5.313l0.979-0.279L130.045,23.223L130.045,23.223z"/>
		<path fill-rule="evenodd" clip-rule="evenodd" fill="#FFFFFF" d="M70.895,22.663c-2.377-1.399-6.572-0.701-8.81,4.334l0.14-4.894
			l-9.37,1.819v0.838l0.979,0.14c1.259,0.141,1.817,0.839,1.958,2.657c0.28,3.356,0.14,9.229,0,12.167
			c-0.14,1.677-0.699,2.516-1.958,2.656l-0.979,0.14v1.119h13.005v-1.119l-1.678-0.14c-1.398-0.14-1.817-0.979-1.958-2.656
			c-0.279-2.658-0.279-7.971-0.14-11.327c0.699-0.979,3.776-1.819,6.572,0L70.895,22.663L70.895,22.663z"/>
	</g>
</g>
</svg>
