<?xml version="1.0" encoding="utf-8"?>
<!-- Generator: Adobe Illustrator 16.2.1, SVG Export Plug-In . SVG Version: 6.00 Build 0)  -->
<!DOCTYPE svg PUBLIC "-//W3C//DTD SVG 1.1//EN" "http://www.w3.org/Graphics/SVG/1.1/DTD/svg11.dtd">
<svg version="1.1" xmlns="http://www.w3.org/2000/svg" xmlns:xlink="http://www.w3.org/1999/xlink" x="0px" y="0px" width="141px"
	 height="60px" viewBox="0 0 141 60" enable-background="new 0 0 141 60" xml:space="preserve">
<g id="Layer_2">
</g>
<g id="Layer_1">
	<g>
		<path fill="#FFFFFF" d="M57.181,43.574h25.019V18.097H57.181V43.574z M62.919,22.151h9.946c0,0,4.285-0.23,4.285,4.438
			c0,4.667-2.601,4.896-2.601,4.896s2.601,0.153,2.601,3.749s0,3.979,0,3.979h-3.443v-3.75c0,0,0-2.906-1.989-2.906
			s-5.432,0.076-5.432,0.076v6.656h-3.366V22.151z"/>
		<path fill="#FFFFFF" d="M73.707,27.201c0-2.448-2.601-2.065-2.601-2.065h-4.82v4.744c0,0,2.602-0.077,4.744-0.077
			C73.172,29.802,73.707,29.344,73.707,27.201z"/>
		<path fill="#FFFFFF" d="M38.934,25.02c0,0,3.991,0,4.208,0v11.478c-0.217,0-4.208,0-4.208,0v2.907h12.089v-2.907
			c0,0-4.373,0-4.591,0V25.02c0.218,0,4.591,0,4.591,0v-2.906H38.934V25.02z"/>
		<path fill="#FFFFFF" d="M7.144,43.574h25.019V18.097H7.144V43.574z M12.729,22.228l2.372,13.083l3.06-13.083l3.749,0.076
			l3.061,13.236l2.296-13.312h3.289l-3.519,17.138h-4.285l-2.754-12.471l-2.984,12.547h-4.208l-3.52-17.215H12.729z"/>
		<path fill="#FFFFFF" d="M106.988,18.097v25.478h25.019V18.097H106.988z M121.678,39.52c-6.273,0-9.104,0.076-9.104,0.076V22.228
			h7.421c0,0,7.65-0.842,7.65,6.044v4.82C127.646,33.092,127.952,39.52,121.678,39.52z"/>
		<path fill="#FFFFFF" d="M121.296,25.059h-5.203v11.476c0,0,2.831,0,5.432,0c2.601,0,2.677-3.367,2.677-3.367s0-0.535,0-4.437
			S121.296,25.059,121.296,25.059z"/>
		<polygon fill="#FFFFFF" points="86.79,24.982 89.162,24.982 89.162,36.535 86.79,36.535 86.79,39.366 101.403,39.366 
			101.403,33.781 98.496,33.781 98.496,36.535 92.299,36.535 92.299,31.869 96.889,31.869 96.889,29.037 92.299,29.037 
			92.299,24.982 98.267,24.982 98.267,27.737 101.403,27.737 101.403,22.151 86.79,22.151 		"/>
	</g>
</g>
</svg>
