<?xml version="1.0" encoding="utf-8"?>
<!-- Generator: Adobe Illustrator 16.2.1, SVG Export Plug-In . SVG Version: 6.00 Build 0)  -->
<!DOCTYPE svg PUBLIC "-//W3C//DTD SVG 1.1//EN" "http://www.w3.org/Graphics/SVG/1.1/DTD/svg11.dtd">
<svg version="1.1" xmlns="http://www.w3.org/2000/svg" xmlns:xlink="http://www.w3.org/1999/xlink" x="0px" y="0px" width="141px"
	 height="60px" viewBox="0 0 141 60" enable-background="new 0 0 141 60" xml:space="preserve">
<g id="Layer_2">
</g>
<g id="Layer_1">
	<g>
		<path fill="#FFFFFF" d="M13.208,25.197v12.58H8.613v-12.58H3.97v-4.003h13.882v4.003H13.208z"/>
		<path fill="#FFFFFF" d="M28.579,32.778h-7.295c0.142,1.374,0.947,1.989,2.108,1.989c1.089,0,1.99-0.237,3.222-0.877l1.634,2.725
			c-1.539,0.9-3.127,1.421-5.069,1.421c-3.743,0-5.804-2.654-5.804-6.468c0-4.287,2.416-6.49,5.685-6.49
			c3.412,0,5.544,2.25,5.544,6.87C28.604,32.304,28.604,32.564,28.579,32.778z M22.942,28.229c-0.972,0-1.516,0.664-1.658,1.895
			h3.554C24.623,28.868,24.197,28.229,22.942,28.229z"/>
		<path fill="#FFFFFF" d="M36.512,38.036c-3.647,0-5.827-2.321-5.827-6.514c0-3.814,1.942-6.444,5.922-6.444
			c2.345,0,3.696,1.09,4.786,2.843l-2.938,2.227c-0.592-1.09-0.996-1.611-1.918-1.611c-1.091,0-1.635,1.09-1.635,3.056
			c0,1.967,0.592,2.985,1.753,2.985c0.805,0,1.374-0.45,2.156-1.611l2.7,2.108C40.066,37.207,38.715,38.036,36.512,38.036z"/>
		<path fill="#FFFFFF" d="M51.055,37.776v-7.061c0-1.611-0.545-2.037-1.421-2.037c-0.9,0-1.446,0.426-1.446,1.99v7.108h-4.264
			V22.212l4.264-1.706v5.662c0.782-0.592,1.659-1.09,3.127-1.09c2.724,0,4.028,1.824,4.028,5.093v7.605H51.055z"/>
		<path fill="#FFFFFF" d="M65.549,38.036c-4.927,0-7.557-3.648-7.557-8.552c0-5.33,3.127-8.552,7.58-8.552
			c4.075,0,5.687,1.753,6.823,4.88l-4.168,1.635c-0.593-1.54-1.162-2.512-2.678-2.512c-1.918,0-2.748,1.919-2.748,4.549
			c0,2.535,0.805,4.548,2.795,4.548c1.444,0,2.061-0.781,2.96-2.345l3.885,2.061C71.329,35.928,69.481,38.036,65.549,38.036z"/>
		<path fill="#FFFFFF" d="M82.931,30.029c-0.544-0.592-1.16-1.042-1.989-1.042c-1.043,0-1.683,0.497-1.683,2.013v6.776h-4.264
			V25.339h4.264v0.9c0.734-0.711,1.563-1.161,2.654-1.161c0.9,0,1.516,0.213,2.013,0.521L82.931,30.029z"/>
		<path fill="#FFFFFF" d="M93.068,37.776v-0.831c-0.759,0.592-1.658,1.091-3.103,1.091c-2.724,0-4.027-1.824-4.027-5.094v-7.604
			h4.288v7.06c0,1.61,0.544,2.037,1.421,2.037c0.876,0,1.421-0.427,1.421-1.991v-7.106h4.288v12.438H93.068z"/>
		<path fill="#FFFFFF" d="M107.563,37.776v-7.061c0-1.611-0.545-2.037-1.421-2.037c-0.901,0-1.446,0.426-1.446,1.99v7.108h-4.264
			V25.339h4.264v0.829c0.782-0.592,1.659-1.09,3.127-1.09c2.725,0,4.028,1.824,4.028,5.093v7.605H107.563z"/>
		<path fill="#FFFFFF" d="M120.161,38.036c-3.647,0-5.827-2.321-5.827-6.514c0-3.814,1.943-6.444,5.922-6.444
			c2.346,0,3.696,1.09,4.786,2.843l-2.938,2.227c-0.592-1.09-0.996-1.611-1.918-1.611c-1.09,0-1.635,1.09-1.635,3.056
			c0,1.967,0.592,2.985,1.753,2.985c0.805,0,1.374-0.45,2.155-1.611l2.7,2.108C123.715,37.207,122.364,38.036,120.161,38.036z"/>
		<path fill="#FFFFFF" d="M134.704,37.776v-7.061c0-1.611-0.545-2.037-1.421-2.037c-0.901,0-1.446,0.426-1.446,1.99v7.108h-4.264
			V22.212l4.264-1.706v5.662c0.782-0.592,1.659-1.09,3.127-1.09c2.725,0,4.028,1.824,4.028,5.093v7.605H134.704z"/>
	</g>
</g>
</svg>
