<svg xmlns="http://www.w3.org/2000/svg" viewBox="0 0 384.1 361.51"><title>tinkey icon 1</title><g id="Layer_2" data-name="Layer 2"><g id="Layer_1-2" data-name="Layer 1"><path d="M0,25.48c2.32-4.61,3.63-9.66,7.09-13.77C14,3.58,22.72,0,33.13,0q33.74,0,67.49,0h249.7C364,0,374.4,5.54,380.79,17.88A31.32,31.32,0,0,1,384,32.38c.06,17.5,0,35,.05,52.49,0,2.35-.05,3.73-2.89,1.94a48.86,48.86,0,0,0-19.57-7c-2.87-.4-3.29-1.58-3.27-4.1.11-13.62.05-27.24,0-40.87,0-7.47-1.61-9.12-9-9.12H34.45c-7.12,0-8.79,1.7-8.79,8.9q0,105.91,0,211.83c0,7,1.61,8.61,8.59,8.61q63.17,0,126.35,0c5.23,0,4.71-.69,4.72,4.87,0,21.25.09,42.49,0,63.74-.07,12.51,2.32,24.3,9.23,34.93,1.19,1.83,1.71,3-1.44,2.93-17-.11-34,.09-51-.12a19.22,19.22,0,0,1-4.6-37.9c5.77-1.25,11.71-.62,17.57-.5,3.08.07,4-.74,4-3.92q-.29-17.24,0-34.49c.05-3.14-.85-4-4-3.94-33.87.11-67.74,0-101.6.1-13.78,0-24-5.7-30.44-18-1.21-2.28-1-5.15-3-7Z"/><path d="M383.54,195.9c-7.05-4.24-14.87-4.54-22.75-4.28-2.9.1-2.43-1.76-2.44-3.46q0-24.19,0-48.37c0-7.66-2.23-9.93-9.76-9.93H226.34c-7.27,0-9.55,2.33-9.55,9.71q0,85.31-.08,170.61c0,3.28.73,4.16,4.08,4.11,16.12-.2,32.25,0,48.37-.16,3.17,0,4.26.57,4.2,4-.13,8.61-.42,17.24.19,25.85a32.82,32.82,0,0,0,4,13.53c.87,1.6,1.45,2.73-1.24,2.71-19-.21-38,.63-57-.41-14.11-.78-26.55-14-27.94-28.87-.14-1.49-.2-3-.2-4.49q0-94.12,0-188.24c0-13.85,6-24.23,18.35-30.69a31.67,31.67,0,0,1,14.84-3.32c42.12,0,84.25-.09,126.37,0,18.66.05,32.69,13.4,33.14,32.08.47,19.49.11,39,.1,58.49A4.83,4.83,0,0,1,383.54,195.9Z"/><path d="M384,282.93q0,28.48,0,57c0,11.65-6.31,18.15-18,18.21q-29.23.16-58.46,0c-11.91-.06-18.08-6.48-18.08-18.48q0-56.78,0-113.55c0-12,6.31-18.34,18.15-18.35q29.23,0,58.46,0c11.39,0,17.91,6.52,17.93,17.86Q384,254.26,384,282.93Zm-19.37-4.61c0-16-.06-32,.06-48,0-2.64-.72-3.35-3.34-3.33q-24.73.17-49.46,0c-2.43,0-3.17.68-3.16,3.14q.11,48,0,95.92c0,2.49.75,3.15,3.17,3.13q24.73-.14,49.46,0c2.63,0,3.35-.72,3.33-3.34C364.57,310,364.63,294.18,364.63,278.32ZM343.44,343.5a6.72,6.72,0,1,0-6.69,6.69A7,7,0,0,0,343.44,343.5Z"/></g></g></svg>